grf
version=1
nRows=19
nColumns=37
inDegrees=no
endheader
time	ground_force_1_vx	ground_force_1_vy	ground_force_1_vz	ground_force_1_px	ground_force_1_py	ground_force_1_pz	ground_moment_1_mx	ground_moment_1_my	ground_moment_1_mz	ground_force_2_vx	ground_force_2_vy	ground_force_2_vz	ground_force_2_px	ground_force_2_py	ground_force_2_pz	ground_moment_2_mx	ground_moment_2_my	ground_moment_2_mz	ground_force_3_vx	ground_force_3_vy	ground_force_3_vz	ground_force_3_px	ground_force_3_py	ground_force_3_pz	ground_moment_3_mx	ground_moment_3_my	ground_moment_3_mz	ground_force_4_vx	ground_force_4_vy	ground_force_4_vz	ground_force_4_px	ground_force_4_py	ground_force_4_pz	ground_moment_4_mx	ground_moment_4_my	ground_moment_4_mz
      3.79000000	      0.00000000	     -0.00000000	      0.00000000	      0.00000000	      0.00000000	      0.00000000	      0.00000000	      0.00000000	      0.00000000	     -3.98500443	     21.27358627	   -393.70715332	   -303.34084035	  -1122.84793112	      0.00000000	      0.00000000	      0.00000000	  10337.23328417	      2.78546935	    -18.45081163	   -374.73645020	   -323.81066683	   -693.24816093	      0.00000000	      0.00000000	     -0.00000000	  -9133.07685480	      0.00000000	     -0.00000000	      0.00000000	      0.00000000	      0.00000000	      0.00000000	      0.00000000	      0.00000000	      0.00000000
      3.80000000	      0.00000000	     -0.00000000	      0.00000000	      0.00000000	      0.00000000	      0.00000000	      0.00000000	      0.00000000	      0.00000000	     -2.98968291	     22.43891525	   -402.52908325	   -304.57853781	  -1122.98134385	      0.00000000	      0.00000000	      0.00000000	  10537.56421533	      4.16094617	    -18.62221754	   -382.28353882	   -326.13808976	   -693.26317379	      0.00000000	      0.00000000	     -0.00000000	  -9130.04010276	      0.00000000	     -0.00000000	      0.00000000	      0.00000000	      0.00000000	      0.00000000	      0.00000000	      0.00000000	      0.00000000
      3.81000000	      0.00000000	     -0.00000000	      0.00000000	      0.00000000	      0.00000000	      0.00000000	      0.00000000	      0.00000000	      0.00000000	     -1.84588313	     23.26102066	   -412.16018677	   -306.57184730	  -1123.31916237	      0.00000000	      0.00000000	      0.00000000	  10680.99897858	      5.81571598	    -19.60739759	   -393.19500732	   -328.13115306	   -695.08900336	      0.00000000	      0.00000000	     -0.00000000	  -9320.74800623	      0.00000000	     -0.00000000	      0.00000000	      0.00000000	      0.00000000	      0.00000000	      0.00000000	      0.00000000	      0.00000000
      3.82000000	      0.00000000	     -0.00000000	      0.00000000	      0.00000000	      0.00000000	      0.00000000	      0.00000000	      0.00000000	      0.00000000	      0.65969896	     24.48513412	   -426.40698242	   -308.53313737	  -1122.95784864	      0.00000000	      0.00000000	      0.00000000	  10921.55484782	      7.63762768	    -20.97367163	   -406.52227783	   -330.50806948	   -695.54823311	      0.00000000	      0.00000000	     -0.00000000	  -9607.47143090	      0.00000000	     -0.00000000	      0.00000000	      0.00000000	      0.00000000	      0.00000000	      0.00000000	      0.00000000	      0.00000000
      3.83000000	      0.00000000	     -0.00000000	      0.00000000	      0.00000000	      0.00000000	      0.00000000	      0.00000000	      0.00000000	      0.00000000	      4.59919405	     26.07428169	   -443.22943115	   -311.09834421	  -1121.85909678	      0.00000000	      0.00000000	      0.00000000	  11241.01924609	      9.71441365	    -21.70515145	   -420.94070435	   -332.15527964	   -695.40115434	      0.00000000	      0.00000000	     -0.00000000	  -9673.07301146	      0.00000000	     -0.00000000	      0.00000000	      0.00000000	      0.00000000	      0.00000000	      0.00000000	      0.00000000	      0.00000000
      3.84000000	      0.00000000	     -0.00000000	      0.00000000	      0.00000000	      0.00000000	      0.00000000	      0.00000000	      0.00000000	      0.00000000	      9.11580753	     28.57608795	   -465.94335938	   -314.21457225	  -1123.35725574	      0.00000000	      0.00000000	      0.00000000	  11321.25544272	     12.37466227	    -23.25208009	   -436.91378784	   -334.32768278	   -695.95226605	      0.00000000	      0.00000000	      0.00000000	 -10161.52114000	      0.00000000	     -0.00000000	      0.00000000	      0.00000000	      0.00000000	      0.00000000	      0.00000000	      0.00000000	      0.00000000
      3.85000000	      0.00000000	     -0.00000000	      0.00000000	      0.00000000	      0.00000000	      0.00000000	      0.00000000	      0.00000000	      0.00000000	     14.61155319	     30.99908066	   -484.81051636	   -316.60244018	  -1122.25111060	      0.00000000	      0.00000000	      0.00000000	  11587.84651780	     15.37485389	    -24.13458196	   -453.84954834	   -336.78167736	   -696.14306839	      0.00000000	      0.00000000	     -0.00000000	 -10443.94101262	      0.00000000	     -0.00000000	      0.00000000	      0.00000000	      0.00000000	      0.00000000	      0.00000000	      0.00000000	      0.00000000
      3.86000000	      0.00000000	     -0.00000000	      0.00000000	      0.00000000	      0.00000000	      0.00000000	      0.00000000	      0.00000000	      0.00000000	     18.78400612	     33.42928314	   -501.66033936	   -318.33510329	  -1122.60744953	      0.00000000	      0.00000000	      0.00000000	  11577.61160075	     19.26401299	    -25.23862053	   -470.43099976	   -338.20310349	   -695.78134211	      0.00000000	      0.00000000	     -0.00000000	 -10822.07410764	      0.00000000	     -0.00000000	      0.00000000	      0.00000000	      0.00000000	      0.00000000	      0.00000000	      0.00000000	      0.00000000
      3.87000000	      0.00000000	     -0.00000000	      0.00000000	      0.00000000	      0.00000000	      0.00000000	      0.00000000	      0.00000000	      0.00000000	     22.44064713	     35.31822205	   -518.91040039	   -319.50187466	  -1122.75956418	      0.00000000	      0.00000000	      0.00000000	  11585.40708032	     22.30635985	    -26.28891949	   -484.09884644	   -338.81766041	   -695.85484165	      0.00000000	      0.00000000	     -0.00000000	 -10977.63558682	      0.00000000	     -0.00000000	      0.00000000	      0.00000000	      0.00000000	      0.00000000	      0.00000000	      0.00000000	      0.00000000
      3.88000000	      0.00000000	     -0.00000000	      0.00000000	      0.00000000	      0.00000000	      0.00000000	      0.00000000	      0.00000000	      0.00000000	     27.71755028	     37.33224106	   -532.25933838	   -320.82386807	  -1122.85287557	      0.00000000	      0.00000000	      0.00000000	  11667.07128898	     26.31102512	    -27.49886552	   -495.96923828	   -339.78149423	   -696.09187194	      0.00000000	      0.00000000	     -0.00000000	 -11226.47597110	      0.00000000	     -0.00000000	      0.00000000	      0.00000000	      0.00000000	      0.00000000	      0.00000000	      0.00000000	      0.00000000
      3.89000000	      0.00000000	     -0.00000000	      0.00000000	      0.00000000	      0.00000000	      0.00000000	      0.00000000	      0.00000000	      0.00000000	     32.88722992	     40.16584396	   -547.76513672	   -322.48525302	  -1122.77162529	      0.00000000	      0.00000000	      0.00000000	  11420.37008226	     31.09211104	    -28.04555402	   -507.94293213	   -339.85253145	   -695.42194427	      0.00000000	      0.00000000	     -0.00000000	 -11112.49107544	      0.00000000	     -0.00000000	      0.00000000	      0.00000000	      0.00000000	      0.00000000	      0.00000000	      0.00000000	      0.00000000
      3.90000000	      0.00000000	     -0.00000000	      0.00000000	      0.00000000	      0.00000000	      0.00000000	      0.00000000	      0.00000000	      0.00000000	     38.30652618	     42.70218277	   -564.92633057	   -322.98221225	  -1123.17476050	      0.00000000	      0.00000000	      0.00000000	  11336.36135212	     33.58517965	    -29.09335621	   -515.66149902	   -339.00744966	   -695.32205547	      0.00000000	      0.00000000	     -0.00000000	 -11026.02083720	      0.00000000	     -0.00000000	      0.00000000	      0.00000000	      0.00000000	      0.00000000	      0.00000000	      0.00000000	      0.00000000
      3.91000000	      0.00000000	     -0.00000000	      0.00000000	      0.00000000	      0.00000000	      0.00000000	      0.00000000	      0.00000000	      0.00000000	     42.55598831	     45.78471375	   -577.98498535	   -322.53176603	  -1123.27484781	      0.00000000	      0.00000000	      0.00000000	  10886.80629533	     35.63960394	    -29.03856780	   -522.85473633	   -337.25536121	   -695.06978293	      0.00000000	      0.00000000	     -0.00000000	 -11044.32237185	      0.00000000	     -0.00000000	      0.00000000	      0.00000000	      0.00000000	      0.00000000	      0.00000000	      0.00000000	      0.00000000
      3.92000000	      0.00000000	     -0.00000000	      0.00000000	      0.00000000	      0.00000000	      0.00000000	      0.00000000	      0.00000000	      0.00000000	     46.67681503	     48.84865952	   -587.96936035	   -320.78137459	  -1123.73164703	      0.00000000	      0.00000000	      0.00000000	  10465.15343260	     37.48269394	    -29.68520301	   -527.53778076	   -334.77046126	   -694.28324135	      0.00000000	      0.00000000	     -0.00000000	 -10998.49851162	      0.00000000	     -0.00000000	      0.00000000	      0.00000000	      0.00000000	      0.00000000	      0.00000000	      0.00000000	      0.00000000
      3.93000000	      0.00000000	     -0.00000000	      0.00000000	      0.00000000	      0.00000000	      0.00000000	      0.00000000	      0.00000000	      0.00000000	     46.87941742	     52.22579193	   -594.14593506	   -316.48947294	  -1124.05604538	      0.00000000	      0.00000000	      0.00000000	   9562.47975140	     39.07539084	    -32.42898138	   -533.46734619	   -329.15380330	   -691.41500506	      0.00000000	      0.00000000	     -0.00000000	 -10488.98790966	      0.00000000	     -0.00000000	      0.00000000	      0.00000000	      0.00000000	      0.00000000	      0.00000000	      0.00000000	      0.00000000
      3.94000000	      0.00000000	     -0.00000000	      0.00000000	      0.00000000	      0.00000000	      0.00000000	      0.00000000	      0.00000000	      0.00000000	     43.68903732	     55.73804855	   -596.36254883	   -310.72861967	  -1124.86333571	      0.00000000	      0.00000000	      0.00000000	   8828.97491917	     39.45612014	    -36.73983347	   -536.40484619	   -322.79767565	   -689.66610731	      0.00000000	      0.00000000	     -0.00000000	  -9884.54049432	      0.00000000	     -0.00000000	      0.00000000	      0.00000000	      0.00000000	      0.00000000	      0.00000000	      0.00000000	      0.00000000
      3.95000000	      0.00000000	     -0.00000000	      0.00000000	      0.00000000	      0.00000000	      0.00000000	      0.00000000	      0.00000000	      0.00000000	     39.28192139	     58.33019257	   -598.51452637	   -302.73253402	  -1124.30878634	      0.00000000	      0.00000000	      0.00000000	   7992.86467830	     38.71868539	    -40.93466906	   -539.34802246	   -315.86186388	   -687.60346725	      0.00000000	      0.00000000	     -0.00000000	  -9323.25533505	      0.00000000	     -0.00000000	      0.00000000	      0.00000000	      0.00000000	      0.00000000	      0.00000000	      0.00000000	      0.00000000
      3.96000000	      0.00000000	     -0.00000000	      0.00000000	      0.00000000	      0.00000000	      0.00000000	      0.00000000	      0.00000000	      0.00000000	     33.36855698	     60.73535919	   -597.17706299	   -294.96120020	  -1124.62710073	      0.00000000	      0.00000000	      0.00000000	   7128.16061122	     38.25444009	    -46.08137847	   -540.98687744	   -307.75365093	   -684.76095018	      0.00000000	      0.00000000	     -0.00000000	  -8274.78844853	      0.00000000	     -0.00000000	      0.00000000	      0.00000000	      0.00000000	      0.00000000	      0.00000000	      0.00000000	      0.00000000
      3.97000000	      0.00000000	     -0.00000000	      0.00000000	      0.00000000	      0.00000000	      0.00000000	      0.00000000	      0.00000000	      0.00000000	     27.05246353	     63.34140015	   -594.37982178	   -284.77986190	  -1124.60546435	      0.00000000	      0.00000000	      0.00000000	   6610.41635590	     34.81492542	    -51.98201675	   -541.32824707	   -299.00567794	   -682.56216441	      0.00000000	      0.00000000	     -0.00000000	  -7286.43869286	      0.00000000	     -0.00000000	      0.00000000	      0.00000000	      0.00000000	      0.00000000	      0.00000000	      0.00000000	      0.00000000
